# Blender3D v248 OBJ File: curve.blend
# www.blender3d.org
mtllib curve.mtl
v 0.002251 -1.000000 -0.005981
v 0.126614 -1.000000 0.145556
v 0.219024 -1.000000 0.318443
v 0.275930 -1.000000 0.506036
v 0.295144 -1.000000 0.701126
v -0.704854 -1.000000 -0.298874
v -0.509764 -1.000000 -0.279659
v -0.322171 -1.000000 -0.222753
v -0.149284 -1.000000 -0.130342
v 0.002253 1.000000 -0.005979
v 0.126615 1.000000 0.145558
v 0.219025 1.000000 0.318445
v 0.275930 1.000000 0.506038
v 0.295144 1.000000 0.701128
v -0.704863 1.000000 -0.298874
v -0.509773 1.000000 -0.279661
v -0.322180 1.000000 -0.222756
v -0.149292 1.000000 -0.130348
v -0.149292 1.000000 -0.130348
v -0.322180 1.000000 -0.222756
v -0.509773 1.000000 -0.279661
v 0.295144 1.000000 0.701128
v 0.275930 1.000000 0.506038
v 0.219025 1.000000 0.318445
v 0.126615 1.000000 0.145558
v 0.002253 1.000000 -0.005979
v -0.149284 -1.000000 -0.130342
v -0.322171 -1.000000 -0.222753
v -0.509764 -1.000000 -0.279659
v 0.295144 -1.000000 0.701126
v 0.275930 -1.000000 0.506036
v 0.219024 -1.000000 0.318443
v 0.126614 -1.000000 0.145556
v 0.002251 -1.000000 -0.005981
v 0.002251 -1.000000 -0.005981
v 0.126614 -1.000000 0.145556
v 0.219024 -1.000000 0.318443
v 0.275930 -1.000000 0.506036
v 0.295144 -1.000000 0.701126
v -0.509764 -1.000000 -0.279659
v -0.322171 -1.000000 -0.222753
v -0.149284 -1.000000 -0.130342
v 0.002253 1.000000 -0.005979
v 0.126615 1.000000 0.145558
v 0.219025 1.000000 0.318445
v 0.275930 1.000000 0.506038
v 0.295144 1.000000 0.701128
v -0.509773 1.000000 -0.279661
v -0.322180 1.000000 -0.222756
v -0.149292 1.000000 -0.130348
v -0.509773 1.000000 -0.279661
v -0.704863 1.000000 -0.298874
v -0.509764 -1.000000 -0.279659
v -0.704854 -1.000000 -0.298874
v -0.704854 -1.000000 -0.298874
v -0.509764 -1.000000 -0.279659
v -0.704863 1.000000 -0.298874
v -0.509773 1.000000 -0.279661
v -0.509773 1.000000 -0.279661
v -0.704863 1.000000 -0.298874
v -0.509764 -1.000000 -0.279659
v -0.704854 -1.000000 -0.298874
v 0.293588 -1.000154 -0.302865
v 0.293588 -1.000154 0.695296
v -0.704573 -1.000154 -0.302865
v 0.293588 1.000154 -0.302865
v 0.293587 1.000154 0.695297
v -0.704573 1.000154 -0.302865
vn 0.000000 0.000000 0.000000
vn -0.773011 0.000000 0.634393
vn -0.881922 0.000000 0.471396
vn -0.956941 0.000000 0.290284
vn -0.995185 0.000000 0.098016
vn -0.290282 0.000000 0.956941
vn -0.471394 0.000000 0.881923
vn -0.634392 -0.000000 0.773011
vn -0.098014 0.000000 0.995185
vn 1.000000 -0.000000 0.000000
vn 0.000000 0.000000 -1.000000
vn -0.000000 0.999254 0.038621
vn -0.000148 0.999999 0.001508
vn 0.000175 -1.000000 -0.000578
vn -0.000201 1.000000 0.000377
vn -0.000236 1.000000 0.000288
vn -0.000288 1.000000 0.000237
vn -0.000379 1.000000 0.000203
vn -0.000586 1.000000 0.000178
vn -0.008736 0.999962 -0.000000
vn 0.098594 0.995128 0.000000
vn -0.000000 -0.999254 0.038620
vn -0.098647 0.995122 0.000000
vn -0.000586 -1.000000 0.000178
vn 0.008735 0.999962 0.000000
vn -0.000148 -0.999999 0.001507
vn -0.000236 -1.000000 0.000288
vn -0.000201 -1.000000 0.000377
vn -0.000288 -1.000000 0.000237
vn -0.000379 -1.000000 0.000203
vn -0.000175 -1.000000 0.000578
vn -0.000175 1.000000 0.000578
vn -0.008735 -0.999962 0.000000
usemtl (null)
s off
f 14//1 22//1 30//1 5//1
f 18//1 19//1 26//1 10//1
f 1//1 34//1 27//1 9//1
f 17//1 20//1 19//1 18//1
f 9//1 27//1 28//1 8//1
f 16//1 21//1 20//1 17//1
f 8//1 28//1 29//1 7//1
f 13//1 23//1 22//1 14//1
f 5//1 30//1 31//1 4//1
f 12//1 24//1 23//1 13//1
f 4//1 31//1 32//1 3//1
f 11//1 25//1 24//1 12//1
f 3//1 32//1 33//1 2//1
f 34//1 1//1 2//1 33//1
f 33//1 36//1 35//1 34//1
f 32//1 37//1 36//1 33//1
f 25//1 44//1 45//1 24//1
f 31//1 38//1 37//1 32//1
f 24//1 45//1 46//1 23//1
f 30//1 39//1 38//1 31//1
f 23//1 46//1 47//1 22//1
f 28//1 41//1 40//1 29//1
f 21//1 48//1 49//1 20//1
f 27//1 42//1 41//1 28//1
f 20//1 49//1 50//1 19//1
f 34//1 35//1 42//1 27//1
f 19//1 50//1 43//1 26//1
f 22//1 47//1 39//1 30//1
f 35//2 36//2 44//2 43//2
f 36//3 37//3 45//3 44//3
f 37//4 38//4 46//4 45//4
f 38//5 39//5 47//5 46//5
f 40//6 41//6 49//6 48//6
f 41//7 42//7 50//7 49//7
f 43//8 50//8 42//8 35//8
f 48//1 51//1 53//1 40//1
f 21//1 58//1 51//1 48//1
f 40//1 53//1 56//1 29//1
f 29//1 56//1 61//1 7//1
f 16//1 59//1 58//1 21//1
f 6//1 62//1 60//1 15//1
f 15//1 60//1 59//1 16//1
f 7//1 61//1 62//1 6//1
f 62//1 55//1 57//1 60//1
f 60//1 57//1 58//1 59//1
f 61//1 56//1 55//1 62//1
f 56//1 53//1 54//1 55//1
f 57//1 52//1 51//1 58//1
f 55//1 54//1 52//1 57//1
f 54//9 53//9 51//9 52//9
f 63//10 66//10 67//10 64//10
f 65//11 68//11 66//11 63//11
f 15//12 52//12 66//12 68//12
f 15//13 16//13 66//13
f 20//14 21//14 66//14
f 17//15 18//15 66//15
f 10//16 66//16 19//16
f 11//17 66//17 26//17
f 12//18 66//18 25//18
f 24//19 46//19 66//19
f 13//20 67//20 66//20
f 14//21 66//21 67//21
f 6//22 65//22 63//22
f 5//23 63//23 64//23
f 3//24 63//24 4//24
f 31//25 64//25 63//25
f 6//26 63//26 7//26
f 1//27 9//27 63//27
f 27//28 28//28 63//28
f 1//29 63//29 2//29
f 33//30 63//30 37//30
f 8//31 29//31 63//31
f 17//32 66//32 51//32
f 10//1 26//1 25//1 11//1
f 26//1 43//1 44//1 25//1
f 4//33 63//33 64//33
