# Blender3D v248 OBJ File: flipper.blend
# www.blender3d.org
mtllib flipper.mtl
v 1.172277 0.833094 8.798569
v 1.149836 0.833095 9.026417
v 1.083375 0.833094 9.245509
v 0.975449 0.833095 9.447426
v 0.830204 0.833095 9.624408
v 0.653222 0.833094 9.769651
v 0.451306 0.833095 9.877578
v 0.232214 0.833094 9.944039
v 0.004365 0.833094 9.966480
v -0.223483 0.833094 9.944039
v -0.442575 0.833095 9.877578
v -0.644491 0.833094 9.769651
v -0.821473 0.833095 9.624407
v -0.966717 0.833095 9.447425
v -1.074644 0.833094 9.245509
v -1.141104 0.833095 9.026416
v -1.163545 0.833094 8.798568
v 1.172277 3.168917 8.798572
v 1.149836 3.168917 9.026420
v 1.083374 3.168917 9.245511
v 0.975448 3.168917 9.447427
v 0.830203 3.168917 9.624407
v 0.653222 3.168917 9.769651
v 0.451306 3.168917 9.877579
v 0.232215 3.168917 9.944038
v 0.004367 3.168917 9.966480
v -0.223481 3.168917 9.944039
v -0.442573 3.168917 9.877579
v -0.644489 3.168917 9.769652
v -0.821470 3.168917 9.624409
v -0.966715 3.168917 9.447429
v -1.074642 3.168917 9.245513
v -1.141104 3.168917 9.026422
v -1.163545 3.168917 8.798574
v 0.004366 0.833094 8.798569
v 0.004366 3.168917 8.798570
v -1.977733 3.976662 -2.995894
v 1.981788 3.976662 -2.995893
v -1.977733 0.017141 -2.995894
v 1.981787 0.017141 -2.995893
v 1.171581 0.827343 8.892201
v -1.167531 0.827343 8.892200
v 1.171582 3.166456 8.892201
v -1.167531 3.166456 8.892201
vn 0.000000 -1.000000 0.000000
vn 0.000000 1.000000 0.000000
vn 0.000001 1.000000 -0.000001
vn -0.000001 1.000000 0.000001
vn 0.000001 1.000000 0.000001
vn -0.000001 1.000000 -0.000001
vn 0.995185 -0.000000 0.098018
vn 0.956940 -0.000000 0.290286
vn 0.881921 0.000000 0.471397
vn 0.773010 0.000000 0.634394
vn 0.634392 0.000000 0.773012
vn 0.471398 -0.000000 0.881921
vn 0.290284 -0.000000 0.956941
vn 0.098019 0.000000 0.995185
vn -0.098016 0.000000 0.995185
vn -0.290286 0.000000 0.956940
vn -0.471396 0.000000 0.881922
vn -0.634392 0.000000 0.773012
vn -0.773010 0.000000 0.634394
vn -0.881920 0.000000 0.471399
vn -0.956940 -0.000000 0.290285
vn -0.995185 -0.000000 0.098019
vn 0.000000 0.997686 -0.067995
vn 0.000000 -0.997686 -0.067995
vn -0.997686 0.000000 -0.067995
vn 0.997686 0.000000 -0.067995
vn 0.000000 0.000000 -1.000000
usemtl Material.001
s off
f 35//1 1//1 2//1
f 36//2 19//2 18//2
f 35//1 2//1 3//1
f 36//2 20//2 19//2
f 35//1 3//1 4//1
f 36//2 21//2 20//2
f 35//1 4//1 5//1
f 36//3 22//3 21//3
f 35//1 5//1 6//1
f 36//4 23//4 22//4
f 35//1 6//1 7//1
f 36//2 24//2 23//2
f 35//1 7//1 8//1
f 36//2 25//2 24//2
f 35//1 8//1 9//1
f 36//2 26//2 25//2
f 35//1 9//1 10//1
f 36//2 27//2 26//2
f 35//1 10//1 11//1
f 36//2 28//2 27//2
f 35//1 11//1 12//1
f 36//2 29//2 28//2
f 35//1 12//1 13//1
f 36//5 30//5 29//5
f 35//1 13//1 14//1
f 36//6 31//6 30//6
f 35//1 14//1 15//1
f 36//2 32//2 31//2
f 35//1 15//1 16//1
f 36//2 33//2 32//2
f 35//1 16//1 17//1
f 36//2 34//2 33//2
f 1//7 18//7 19//7 2//7
f 2//8 19//8 20//8 3//8
f 3//9 20//9 21//9 4//9
f 4//10 21//10 22//10 5//10
f 5//11 22//11 23//11 6//11
f 6//12 23//12 24//12 7//12
f 7//13 24//13 25//13 8//13
f 8//14 25//14 26//14 9//14
f 9//15 26//15 27//15 10//15
f 10//16 27//16 28//16 11//16
f 11//17 28//17 29//17 12//17
f 12//18 29//18 30//18 13//18
f 13//19 30//19 31//19 14//19
f 14//20 31//20 32//20 15//20
f 15//21 32//21 33//21 16//21
f 16//22 33//22 34//22 17//22
f 40//23 39//23 42//23 41//23
f 37//24 38//24 43//24 44//24
f 38//25 40//25 41//25 43//25
f 39//26 37//26 44//26 42//26
f 43//27 41//27 42//27 44//27
