# Blender3D v248 OBJ File: flipper2.blend
# www.blender3d.org
mtllib flipper2.mtl
v -1.579961 1.780241 -6.781408
v 1.667325 1.780241 -6.781407
v -1.579961 -1.467043 -6.781409
v 1.667324 -1.467043 -6.781408
v 0.872657 -1.467046 6.201827
v -0.785301 -1.467046 6.201826
v 0.882652 1.780239 6.201827
v -0.795295 1.780239 6.201826
v 1.664632 -1.467459 -6.787910
v 1.664632 1.779825 -6.785325
v -1.582653 1.779825 -6.785325
v -1.582652 -1.467459 -6.787910
vt 0.000000 0.000000
vt 0.000000 1.000000
vt 1.000000 1.000000
vt 1.000000 0.000000
vn 0.000000 -1.000000 -0.000000
vn 0.998154 -0.001536 0.060710
vn -0.998154 -0.001536 0.060710
vn -0.000000 1.000000 0.000000
vn -0.000001 0.000000 1.000000
vn -0.000000 0.000796 -1.000000
usemtl Material
s off
f 4/1/1 5/2/1 6/3/1 3/4/1
f 2/1/2 7/2/2 5/3/2 4/4/2
f 8/3/3 1/4/3 3/1/3 6/2/3
f 1/1/4 8/2/4 7/3/4 2/4/4
f 7/1/5 8/2/5 6/3/5 5/4/5
f 11/1/6 10/4/6 9/3/6 12/2/6
