# Blender3D v248 OBJ File: plunger.blend
# www.blender3d.org
mtllib plunger.mtl
v 2.899895 -1.403903 4.169624
v 3.409916 -1.100831 4.168874
v 3.788895 -0.755058 4.168019
v 4.022270 -0.379873 4.167091
v 4.101070 0.010306 4.166125
v 4.022270 0.400485 4.165160
v 3.788896 0.775670 4.164232
v 3.409916 1.121443 4.163377
v 2.899895 1.424515 4.162627
v 2.278433 1.673240 4.162012
v 1.569412 1.858060 4.161554
v 0.800079 1.971871 4.161273
v -0.000000 2.010300 4.161178
v -0.800080 1.971871 4.161273
v -1.569412 1.858059 4.161554
v -2.278433 1.673240 4.162012
v -2.899895 1.424515 4.162627
v -3.409915 1.121442 4.163377
v -3.788894 0.775669 4.164232
v -4.022268 0.400484 4.165160
v -4.101068 0.010304 4.166125
v -4.022266 -0.379875 4.167091
v -3.788891 -0.755060 4.168019
v -3.409911 -1.100833 4.168874
v -2.899889 -1.403905 4.169624
v -2.278426 -1.652629 4.170239
v -1.569405 -1.837448 4.170696
v -0.800072 -1.951259 4.170978
v 0.000008 -1.989688 4.171073
v 0.800087 -1.951258 4.170978
v 1.569419 -1.837446 4.170696
v 2.278440 -1.652626 4.170239
v 2.899901 -1.424513 -4.162627
v 3.409920 -1.121440 -4.163377
v 3.788899 -0.775667 -4.164232
v 4.022272 -0.400481 -4.165160
v 4.101070 -0.010302 -4.166125
v 4.022268 0.379877 -4.167091
v 3.788893 0.755061 -4.168019
v 3.409913 1.100833 -4.168874
v 2.899893 1.403904 -4.169624
v 2.278432 1.652628 -4.170239
v 1.569413 1.837447 -4.170696
v 0.800082 1.951258 -4.170978
v 0.000005 1.989688 -4.171073
v -0.800073 1.951259 -4.170978
v -1.569404 1.837449 -4.170696
v -2.278424 1.652630 -4.170239
v -2.899885 1.403907 -4.169624
v -3.409907 1.100836 -4.168874
v -3.788888 0.755064 -4.168019
v -4.022264 0.379881 -4.167091
v -4.101068 -0.010298 -4.166125
v -4.022271 -0.400477 -4.165160
v -3.788901 -0.775662 -4.164232
v -3.409925 -1.121434 -4.163377
v -2.899909 -1.424507 -4.162627
v -2.278452 -1.673234 -4.162012
v -1.569435 -1.858055 -4.161554
v -0.800106 -1.971868 -4.161273
v -0.000029 -2.010300 -4.161178
v 0.800049 -1.971874 -4.161273
v 1.569382 -1.858066 -4.161554
v 2.278404 -1.673250 -4.162012
v 0.000001 0.010306 4.166125
v 0.000001 -0.010306 -4.166125
vn -0.000000 0.002474 0.999997
vn 0.000000 -0.002473 -0.999997
vn -0.000000 -0.002474 -0.999997
vn -0.000000 0.002473 0.999997
vn 0.000000 0.002475 0.999997
vn 0.000000 -0.002475 -0.999997
vn 0.510849 -0.859668 0.002127
vn 0.674003 -0.738726 0.001827
vn 0.849133 -0.528177 0.001307
vn 0.980210 -0.197960 0.000490
vn 0.980209 0.197964 -0.000490
vn 0.849132 0.528179 -0.001307
vn 0.674002 0.738727 -0.001827
vn 0.510848 0.859669 -0.002127
vn 0.371572 0.928401 -0.002297
vn 0.252240 0.967662 -0.002394
vn 0.146343 0.989231 -0.002447
vn 0.047977 0.998845 -0.002471
vn -0.047977 0.998845 -0.002471
vn -0.146342 0.989231 -0.002447
vn -0.252240 0.967662 -0.002394
vn -0.371572 0.928401 -0.002297
vn -0.510848 0.859669 -0.002127
vn -0.674001 0.738728 -0.001827
vn -0.849131 0.528180 -0.001307
vn -0.980209 0.197965 -0.000490
vn -0.980210 -0.197959 0.000490
vn -0.849134 -0.528176 0.001307
vn -0.674004 -0.738725 0.001827
vn -0.510850 -0.859667 0.002127
vn -0.371574 -0.928401 0.002297
vn -0.252242 -0.967661 0.002394
vn -0.146344 -0.989231 0.002447
vn -0.047978 -0.998845 0.002471
vn 0.047975 -0.998845 0.002471
vn 0.146341 -0.989231 0.002447
vn 0.252238 -0.967662 0.002394
vn 0.371571 -0.928402 0.002297
usemtl (null)
s off
f 65//1 1//1 2//1
f 66//2 34//2 33//2
f 65//1 2//1 3//1
f 66//3 35//3 34//3
f 65//4 3//4 4//4
f 66//2 36//2 35//2
f 65//5 4//5 5//5
f 66//3 37//3 36//3
f 65//1 5//1 6//1
f 66//6 38//6 37//6
f 65//4 6//4 7//4
f 66//2 39//2 38//2
f 65//1 7//1 8//1
f 66//3 40//3 39//3
f 65//4 8//4 9//4
f 66//3 41//3 40//3
f 65//1 9//1 10//1
f 66//3 42//3 41//3
f 65//1 10//1 11//1
f 66//2 43//2 42//2
f 65//1 11//1 12//1
f 66//3 44//3 43//3
f 65//1 12//1 13//1
f 66//3 45//3 44//3
f 65//1 13//1 14//1
f 66//3 46//3 45//3
f 65//1 14//1 15//1
f 66//3 47//3 46//3
f 65//1 15//1 16//1
f 66//2 48//2 47//2
f 65//1 16//1 17//1
f 66//3 49//3 48//3
f 65//4 17//4 18//4
f 66//3 50//3 49//3
f 65//1 18//1 19//1
f 66//3 51//3 50//3
f 65//4 19//4 20//4
f 66//2 52//2 51//2
f 65//1 20//1 21//1
f 66//6 53//6 52//6
f 65//5 21//5 22//5
f 66//3 54//3 53//3
f 65//4 22//4 23//4
f 66//2 55//2 54//2
f 65//1 23//1 24//1
f 66//3 56//3 55//3
f 65//1 24//1 25//1
f 66//2 57//2 56//2
f 65//1 25//1 26//1
f 66//3 58//3 57//3
f 65//4 26//4 27//4
f 66//3 59//3 58//3
f 65//1 27//1 28//1
f 66//3 60//3 59//3
f 65//1 28//1 29//1
f 66//3 61//3 60//3
f 65//1 29//1 30//1
f 66//3 62//3 61//3
f 65//1 30//1 31//1
f 66//3 63//3 62//3
f 65//4 31//4 32//4
f 66//3 64//3 63//3
f 32//1 1//1 65//1
f 66//3 33//3 64//3
f 1//7 33//7 34//7 2//7
f 2//8 34//8 35//8 3//8
f 3//9 35//9 36//9 4//9
f 4//10 36//10 37//10 5//10
f 5//11 37//11 38//11 6//11
f 6//12 38//12 39//12 7//12
f 7//13 39//13 40//13 8//13
f 8//14 40//14 41//14 9//14
f 9//15 41//15 42//15 10//15
f 10//16 42//16 43//16 11//16
f 11//17 43//17 44//17 12//17
f 12//18 44//18 45//18 13//18
f 13//19 45//19 46//19 14//19
f 14//20 46//20 47//20 15//20
f 15//21 47//21 48//21 16//21
f 16//22 48//22 49//22 17//22
f 17//23 49//23 50//23 18//23
f 18//24 50//24 51//24 19//24
f 19//25 51//25 52//25 20//25
f 20//26 52//26 53//26 21//26
f 21//27 53//27 54//27 22//27
f 22//28 54//28 55//28 23//28
f 23//29 55//29 56//29 24//29
f 24//30 56//30 57//30 25//30
f 25//31 57//31 58//31 26//31
f 26//32 58//32 59//32 27//32
f 27//33 59//33 60//33 28//33
f 28//34 60//34 61//34 29//34
f 29//35 61//35 62//35 30//35
f 30//36 62//36 63//36 31//36
f 31//37 63//37 64//37 32//37
f 33//38 1//38 32//38 64//38
